<svg xmlns="http://www.w3.org/2000/svg" viewBox="0 0 100 100"><rect x="6" y="6" width="88" height="88" rx="16" fill="rgba(71,140,191,0.4)" stroke="#7EC8FF" stroke-width="5"/><g transform="translate(10, 10) scale(1.6)" fill="#FFF"><path d="M16.5,2.6A1.8,1.8,0,0,0,15.1,2a2,2,0,0,0-1.4.6,1.9,1.9,0,0,0,0,2.8L19.4,11,6.2,24.1a3.9,3.9,0,0,0,0,5.6L19.4,42.8A3.8,3.8,0,0,0,22.2,44,3.9,3.9,0,0,0,25,42.8L41,26.9ZM9.1,26.9l13.1-13,13,13Z"/><path d="M41,32s-4,5.8-4,8a4,4,0,0,0,8,0C45,37.8,41,32,41,32Z"/></g></svg>