<svg xmlns="http://www.w3.org/2000/svg" viewBox="0 0 16 16" width="16" height="16"><rect x="1" y="1" width="14" height="14" rx="2.5" fill="rgba(71,140,191,0.4)" stroke="#7EC8FF" stroke-width="0.8"/><path fill="#000" d="M5 4a1 1 0 1 0 1 1 1 1 0 0 0-1-1m6 6a1 1 0 1 0 1 1 1 1 0 0 0-1-1M8 7a1 1 0 1 0 1 1 1 1 0 0 0-1-1m4.36-6H3.64A2.64 2.64 0 0 0 1 3.64v8.72A2.64 2.64 0 0 0 3.64 15h8.72A2.64 2.64 0 0 0 15 12.36V3.64A2.64 2.64 0 0 0 12.36 1m1.24 11.36a1.25 1.25 0 0 1-1.24 1.24H3.64a1.25 1.25 0 0 1-1.24-1.24V3.64A1.25 1.25 0 0 1 3.64 2.4h8.72a1.25 1.25 0 0 1 1.24 1.24Z"/></svg>