<svg xmlns="http://www.w3.org/2000/svg" viewBox="0 0 512 512">
  <path
    d="M400.904 222.798v-94.404c0-7.224-5.133-13.354-12.119-14.72L262.689 40.873a15 15 0 0 0-15 0l-129.093 74.532a15 15 0 0 0-7.5 12.99v94.404C61.357 238.448 0 270.747 0 322.863c0 44.723 47.412 83.574 127.305 104.758l-5.96 27.292c-2.556 11.702 9.041 21.601 20.226 17.127l75-30c9.922-3.967 12.64-16.794 5.129-24.439l-56-57c-8.332-8.478-22.812-4.334-25.355 7.313l-6.631 30.363C70.41 381.221 30 352.049 30 322.863c0-25.345 30.686-50.947 81.096-68.464v23.06a15 15 0 0 0 7.5 12.99l129.904 75a15 15 0 0 0 15 0l129.904-75a15 15 0 0 0 7.5-12.99v-23.06C451.314 271.916 482 297.518 482 322.863c0 55.546-121.998 83.743-181.91 88.684-8.256.682-14.396 7.928-13.715 16.184.675 8.174 7.835 14.395 16.184 13.715C380.66 434.989 512 401.241 512 322.863c0-52.121-61.374-84.42-111.096-100.065M163.737 401.41l20.773 21.144-27.821 11.129zm91.452-330.227 99.904 57.68L256 186.074l-99.904-57.68zm-114.093 83.193L241 212.055v114.423l-99.904-57.68zm229.808 114.422L271 326.478V212.055l99.904-57.679z"
    fill="#000" />
</svg>
