<svg xmlns="http://www.w3.org/2000/svg" width="100" height="100" viewBox="-30 -10 355 315">
  <g fill="#000" stroke="#000" stroke-width="4" stroke-linejoin="round">
    <path d="M147.619 0C66.219 0 0 66.219 0 147.619s66.219 147.619 147.619 147.619 147.619-66.219 147.619-147.619S229.019 0 147.619 0m5.21 285.581 3.676-6.362-8.248-4.762-.638 1.105-.638-1.105-8.248 4.762 3.676 6.362C68.671 282.829 9.524 222.014 9.524 147.619c0-23.271 5.81-45.2 16.019-64.452l3.667 6.348 8.248-3.729-.638-.071h1.276V76.19H30.79c24.481-42.857 67.686-64.6 116.829-64.6s92.348 21.743 116.829 64.6h-7.305v9.524h1.276l-.638.071 8.248 4.248 3.667-6.61c10.21 19.252 16.019 41.057 16.019 64.324-.001 74.396-59.148 135.082-132.886 137.834"/>
    <path d="m108.855 227.486-9.954-17.241 8.247-4.762 9.955 17.24zm19.914 34.491-9.955-17.242 8.248-4.762 9.955 17.242zM69.029 158.5l-9.955-17.241 8.248-4.762 9.955 17.241zm-19.913-34.49-9.954-17.241 8.247-4.762 9.955 17.24zM100 76.19h19.048v9.524H100zm-42.857 0h19.048v9.524H57.143zm119.047 0h19.048v9.524H176.19zm42.858 0h19.048v9.524h-19.048zm-52.586 185.764-8.25-4.76 9.954-17.245 8.249 4.761zm38.938-86.473-5.9-3.414-4.771 8.238 5.909 3.424-2.595 4.495 8.247 4.762 9.958-17.243-8.248-4.762zm-19.027 51.987-8.248-4.761 9.953-17.245 8.248 4.762zm39.823-68.982-8.249-4.761 9.953-17.244 8.25 4.76zm19.912-34.492-8.249-4.76 9.953-17.245 8.249 4.761zM142.857 238.095h9.524v19.048h-9.524zM55.38 88.878l16.184 9.349-4.764 8.247-16.183-9.349zm139.33 91.417 4.771-8.248-5.19-3 11.514-49.51 6.448-3.724-4.762-8.248-6.462 3.733-48.648-14.757V85.714h4.762V76.19h-19.048v9.524h4.762v10.827l-48.652 14.752-6.462-3.733-4.762 8.248 6.448 3.724 11.519 49.514-5.19 3.005 4.771 8.238 5.186-3 37.143 34.771v6.986h9.524v-6.981l37.138-34.767zm-51.853 18.719-32.152-30.1-9.962-42.843 42.114 24.324zm-37.352-81.19 42.114-12.771 42.114 12.771-42.114 24.324zm46.876 81.195v-48.624l42.114-24.319-9.962 42.848zM100.51 180.3l-4.772-8.238-5.9 3.414-2.595-4.495-8.248 4.762 9.957 17.243 8.248-4.762-2.6-4.5zm144.115-83.198-16.184 9.35-4.764-8.248 16.184-9.348z"/>
  </g>
</svg>
